<svg width="66" height="23" viewBox="0 0 66 23" fill="none" xmlns="http://www.w3.org/2000/svg">
<path d="M14.2619 16.1699C13.2 17.4491 8.06084 17.5979 6.1301 17.5979C2.31689 17.5979 0 15.1362 0 11.5643C0 8.01659 2.34102 5.5549 6.1301 5.5549C7.9643 5.5549 13.2483 6.75759 14.3102 8.0367L8.8814 9.53705C8.10911 8.69235 7.26441 8.35447 6.1301 8.35447C4.5131 8.35447 3.11332 9.65772 3.11332 11.5643C3.11332 13.6399 4.41657 14.7983 6.1301 14.7983C7.14374 14.7983 8.30218 14.4122 8.92967 13.6157L14.2619 16.1699Z" fill="white"/>
<path d="M28.9646 6.34731L21.9415 22.9999H18.4903L20.7348 17.8111L15.8838 6.34731H19.3109L21.7243 12.4774L22.4242 14.6736L23.1 12.4774L25.5134 6.34731H28.9646Z" fill="white"/>
<path d="M36.8544 8.90553C35.1168 8.90553 33.8618 10.2329 33.8618 12.043C33.8618 13.8289 35.1168 15.1563 36.8544 15.1563C38.5438 15.1563 39.7023 13.9013 39.7023 12.043C39.7023 10.1605 38.5438 8.90553 36.8544 8.90553ZM30.845 17.6904V0H33.91V6.29904L33.8618 7.1196C34.3686 6.44384 35.9132 6.05769 36.9751 6.05769C40.7642 6.05769 42.888 8.83313 42.888 12.043C42.888 15.6631 40.7159 18.0041 36.9751 18.0041C36.058 18.0041 34.5858 17.5697 33.9824 16.8457L34.0066 17.4973V17.6904H30.845Z" fill="white"/>
<path d="M55.6473 16.2423C54.7543 17.4008 52.7029 18.1007 50.9411 18.1007C47.1038 18.1007 44.9558 15.47 44.9558 12.0671C44.9558 8.59179 47.0796 6.05769 50.8204 6.05769C54.5371 6.05769 56.6609 8.59179 56.6609 12.0671C56.6609 12.4533 56.6609 12.6946 56.6368 13.0325H48.0933C48.2622 14.4564 49.3241 15.3494 50.9411 15.3494C52.0996 15.3494 53.1856 14.9632 53.8613 14.2151L55.6473 16.2423ZM48.1415 10.9569H53.451C53.3062 9.67783 52.2444 8.809 50.8204 8.809C49.3965 8.809 48.2622 9.67783 48.1415 10.9569Z" fill="white"/>
<path d="M65.1137 9.19514C64.4862 8.97794 63.9312 8.90553 63.2795 8.90553C62.8451 8.90553 62.4831 8.92967 62.1452 9.07447V17.6904H59.0319V6.85412C59.9731 6.37144 61.5901 6.03356 63.1589 6.03356C63.8346 6.03356 65.0413 6.10596 65.7654 6.37144L65.1137 9.19514Z" fill="white"/>
</svg>
