<svg width="173" height="16" viewBox="0 0 173 16" fill="none" xmlns="http://www.w3.org/2000/svg">
<path fill-rule="evenodd" clip-rule="evenodd" d="M16 2.91193C15.4121 3.17965 14.7791 3.3607 14.1152 3.4416C14.7932 3.02556 15.3135 2.36588 15.5586 1.58004C14.9238 1.96525 14.2222 2.2455 13.4728 2.39573C12.8755 1.74183 12.0218 1.3335 11.0771 1.3335C9.26548 1.3335 7.79574 2.84066 7.79574 4.69933C7.79574 4.9632 7.82391 5.21938 7.88026 5.46592C5.15208 5.32531 2.73381 3.98668 1.11381 1.94792C0.831132 2.44677 0.669596 3.02556 0.669596 3.64191C0.669596 4.80912 1.24905 5.83958 2.12995 6.4434C1.59277 6.42703 1.08563 6.27391 0.642365 6.02352V6.06493C0.642365 7.69632 1.77402 9.0571 3.27663 9.36527C3.00147 9.44424 2.71128 9.48373 2.41169 9.48373C2.20039 9.48373 1.99378 9.46351 1.79374 9.42402C2.21166 10.7607 3.42313 11.7344 4.86001 11.7604C3.7368 12.6637 2.32059 13.202 0.783234 13.202C0.518398 13.202 0.256383 13.1866 0 13.1558C1.45284 14.1092 3.17896 14.6668 5.03187 14.6668C11.0705 14.6668 14.3715 9.53862 14.3715 5.09033C14.3715 4.94394 14.3687 4.79756 14.3631 4.65407C15.0045 4.17929 15.5614 3.58702 16 2.91193Z" fill="white"/>
<path d="M61.1808 3.81794C61.1808 3.98169 61.1808 4.51541 61.1808 5.27366H63.7878L63.5052 7.59763H61.1808C61.1808 11.1816 61.1808 15.9843 61.1808 15.9843H58.0956C58.0956 15.9843 58.0956 11.2452 58.0956 7.59763H56.488V5.27366H58.0956C58.0956 4.35204 58.0956 3.69669 58.0956 3.51422C58.0956 2.64485 58.0301 2.23235 58.3995 1.55866C58.7691 0.885005 59.8116 -0.00543266 61.6147 0.0160048C63.4183 0.0382236 64.1785 0.211724 64.1785 0.211724L63.7878 2.6885C63.7878 2.6885 62.6362 2.38441 62.0709 2.49279C61.5063 2.60119 61.1808 2.94894 61.1808 3.81794Z" fill="white"/>
<path d="M116.55 3.358C115.891 2.59144 115.546 1.60104 115.573 0.592723L113.109 0.533203C113.109 0.533203 113.109 0.638323 113.109 0.780083V10.6602C113.144 13.786 108.205 13.7102 108.596 10.2551C108.835 8.88136 110.311 8.03592 111.623 8.51384V5.99992C108.767 5.50264 106.061 7.7756 106.089 10.6713C106.339 16.9513 115.346 16.9521 115.596 10.6713C115.533 10.4465 115.568 6.26152 115.559 5.90856C116.68 6.60568 117.983 6.95416 119.303 6.90952V4.3132C118.083 4.3132 117.151 3.98872 116.55 3.358Z" fill="white"/>
<g clip-path="url(#clip0_2615_1688)">
<path d="M165 14.6668C163.57 14.6668 162.542 14.6661 161.74 14.5883C160.947 14.5115 160.44 14.3638 160.035 14.1095C159.572 13.8188 159.181 13.4277 158.891 12.9651C158.636 12.5604 158.489 12.0532 158.412 11.2604C158.334 10.4583 158.333 9.42966 158.333 8.00016C158.333 6.57067 158.334 5.54198 158.412 4.73996C158.489 3.94713 158.636 3.43996 158.891 3.03521C159.181 2.5726 159.572 2.18143 160.035 1.89077C160.44 1.63653 160.947 1.48875 161.74 1.41198C162.542 1.3342 163.57 1.3335 165 1.3335C166.429 1.3335 167.458 1.3342 168.26 1.41198C169.053 1.48875 169.56 1.63653 169.965 1.89077C170.427 2.18144 170.819 2.57261 171.109 3.03521C171.364 3.43996 171.511 3.94713 171.588 4.73996C171.666 5.54198 171.667 6.57067 171.667 8.00016C171.667 9.42966 171.666 10.4583 171.588 11.2604C171.511 12.0532 171.364 12.5604 171.109 12.9651C170.819 13.4277 170.427 13.8188 169.965 14.1095C169.56 14.3638 169.053 14.5115 168.26 14.5883C167.458 14.6661 166.429 14.6668 165 14.6668Z" fill="white" stroke="white" stroke-width="2"/>
<path d="M165 11.3333C166.473 11.3333 167.667 10.1394 167.667 8.66667C167.667 7.19391 166.473 6 165 6C163.527 6 162.333 7.19391 162.333 8.66667C162.333 10.1394 163.527 11.3333 165 11.3333Z" fill="white" stroke="black" stroke-width="2"/>
<path d="M168.25 5.5C168.664 5.5 169 5.16421 169 4.75C169 4.33579 168.664 4 168.25 4C167.836 4 167.5 4.33579 167.5 4.75C167.5 5.16421 167.836 5.5 168.25 5.5Z" fill="black"/>
</g>
<defs>
<clipPath id="clip0_2615_1688">
<rect width="16" height="16" fill="white" transform="translate(157)"/>
</clipPath>
</defs>
</svg>
